<?xml version="1.0" encoding="UTF-8"?>
<svg id="Layer_1" xmlns="http://www.w3.org/2000/svg" version="1.1" viewBox="0 0 500 500">
  <!-- Generator: Adobe Illustrator 29.2.1, SVG Export Plug-In . SVG Version: 2.1.0 Build 116)  -->
  <g id="_x35_H5OmK">
    <g>
      <path d="M500,499.832c-39.533-1.311-90.64,7.803-118.632-27.006-13.404-16.669-17.712-37.835-19.084-58.792l.02-191.347h-36.377l-.732-.729v-79.497h37.109V38.897h94.238v103.564h43.457v80.226l-43.46-.003-.021,161.693c.916,12.781,4.846,23.899,19.317,25.011,7.8.599,16.292-.433,24.164.006v90.437Z"/>
      <path d="M0,283.951c3.235-2.138,5.557-3.882,9.786-2.695,5.711,21.924,19.376,40.106,39.565,50.661-.327,3.851-3.048,7.359-6.999,7.867-11.298-5.937-25.148-11.283-32.301-22.325-4.117-6.355-6.896-13.915-8.367-21.328-.602-3.035-.316-6.52-1.684-9.263v-2.917Z"/>
      <path d="M265.625,134.196v365.636h-97.168v-91.166l52.448-43.072c6.536-8.677,2.27-18.561-5.079-25.004l-47.369-32.085v-39.627c8.009,4.366,20.437,7.061,29.559,6.338,5.511-.436,18.802-7.746,23.182-11.438,17.905-15.094,9.653-38.053-15.154-31.135-5.49,1.531-10.392,4.692-15.285,7.457l-22.301-10.121v-95.785h97.168Z"/>
      <path d="M99.609,277.144l113.451,71.548c5.343,5.725,3.198,11.506-2.117,16.22-1.549,1.374-3.57,2.372-5.123,3.65-34.424,28.313-69.233,56.162-103.76,84.35,5.422,3.076,15.147,16.212,8.281,21.383-8.321,6.266-18.927-8.385-23.909-13.124-3.159-3.005-7.047-5.727-10.252-8.745l113.27-95.293-106.574-68.783-3.059-5.354-.714-110.876c-48.88-3.652-82.139-57.225-48.817-98.93,29.379-36.77,93.152-33.963,118.354,6.105,25.181,40.037-5.433,86.675-49.027,92.345l.062,38.341,90.745,38.288,1.481-.007c6.457-4.244,22.591-11.726,29.262-5.853,7.696,6.774-6.98,16.669-12.331,19.269-6.669,3.241-16.619,7.639-23.769,4.522l-85.454-35.732v46.677ZM83.885,71.132c-28.027,1.97-54.555,27.73-38.38,55.92,19.012,33.135,80.816,27.448,87.64-11.243,4.908-27.823-24.09-46.446-49.26-44.676Z"/>
      <rect x="170.898" width="94.238" height="93.84"/>
      <path d="M37.487,275.797c4.12,17.27,13.585,29.188,28.279,38.692,2.241,1.45,3.551.528,2.205,4.335-.684,1.936-3.312,3.923-5.476,3.327-3.276-.902-11.755-5.989-14.898-8.044-10.021-6.554-14.361-14.444-16.691-26.167-1.312-6.604-3.342-14.269,6.581-12.143Z"/>
      <path d="M59.95,274.823c2.883,12.441,11.226,23.859,23.022,29.11-1.007,6-3.409,5.2-7.881,3.218-10.23-4.534-16.796-10.153-19.676-21.25-1.257-4.842-3.437-13.19,4.535-11.078Z"/>
    </g>
  </g>
</svg>